<svg width="512" height="512" viewBox="0 0 512 512" fill="none" xmlns="http://www.w3.org/2000/svg">
  <defs>
    <linearGradient id="bg" x1="64" y1="64" x2="448" y2="448" gradientUnits="userSpaceOnUse">
      <stop stop-color="#0E2135"/>
      <stop offset="1" stop-color="#123C2D"/>
    </linearGradient>
    <linearGradient id="grid" x1="160" y1="132" x2="355" y2="374" gradientUnits="userSpaceOnUse">
      <stop stop-color="#74F4FF"/>
      <stop offset="1" stop-color="#73FFA8"/>
    </linearGradient>
  </defs>
  <rect x="24" y="24" width="464" height="464" rx="108" fill="url(#bg)"/>
  <rect x="96" y="96" width="320" height="320" rx="44" fill="rgba(255,255,255,0.04)" stroke="rgba(255,255,255,0.12)" stroke-width="12"/>
  <path d="M160 170H352" stroke="url(#grid)" stroke-width="16" stroke-linecap="round"/>
  <path d="M160 256H352" stroke="url(#grid)" stroke-width="16" stroke-linecap="round"/>
  <path d="M160 342H352" stroke="url(#grid)" stroke-width="16" stroke-linecap="round"/>
  <path d="M170 160V352" stroke="url(#grid)" stroke-width="16" stroke-linecap="round"/>
  <path d="M256 160V352" stroke="url(#grid)" stroke-width="16" stroke-linecap="round"/>
  <path d="M342 160V352" stroke="url(#grid)" stroke-width="16" stroke-linecap="round"/>
  <circle cx="256" cy="256" r="46" fill="#09131C" stroke="#C5F4FF" stroke-width="14"/>
  <path d="M256 222L269 246H296L274 263L282 290L256 275L230 290L238 263L216 246H243L256 222Z" fill="#F2F7FF"/>
</svg>
