<svg width="512" height="512" viewBox="0 0 512 512" fill="none" xmlns="http://www.w3.org/2000/svg">
  <defs>
    <linearGradient id="bg" x1="88" y1="72" x2="430" y2="432" gradientUnits="userSpaceOnUse">
      <stop stop-color="#162444"/>
      <stop offset="1" stop-color="#0F4B46"/>
    </linearGradient>
    <linearGradient id="wave" x1="118" y1="208" x2="402" y2="332" gradientUnits="userSpaceOnUse">
      <stop stop-color="#83D7FF"/>
      <stop offset="1" stop-color="#7DFFD1"/>
    </linearGradient>
  </defs>
  <rect x="24" y="24" width="464" height="464" rx="108" fill="url(#bg)"/>
  <path d="M112 336C147 314 173 302 212 303C257 305 281 339 327 339C357 339 380 326 400 312V394C381 403 359 410 326 410C279 410 252 379 206 379C170 379 143 393 112 413V336Z" fill="#0A1620" fill-opacity="0.64"/>
  <path d="M112 332C146 306 173 292 212 292C259 292 283 325 329 325C356 325 379 316 400 302" stroke="url(#wave)" stroke-width="18" stroke-linecap="round"/>
  <path d="M141 262L209 191L258 239L319 171L371 262" stroke="#E4F8FF" stroke-width="18" stroke-linecap="round" stroke-linejoin="round"/>
  <path d="M154 262H358" stroke="#E4F8FF" stroke-width="18" stroke-linecap="round"/>
  <circle cx="342" cy="148" r="28" fill="#8A84FF"/>
</svg>
