<svg width="512" height="512" viewBox="0 0 512 512" fill="none" xmlns="http://www.w3.org/2000/svg">
  <defs>
    <linearGradient id="bg" x1="70" y1="66" x2="438" y2="448" gradientUnits="userSpaceOnUse">
      <stop stop-color="#28173A"/>
      <stop offset="1" stop-color="#113A3D"/>
    </linearGradient>
    <linearGradient id="claw" x1="176" y1="150" x2="335" y2="332" gradientUnits="userSpaceOnUse">
      <stop stop-color="#7EF7FF"/>
      <stop offset="1" stop-color="#F57BFF"/>
    </linearGradient>
  </defs>
  <rect x="24" y="24" width="464" height="464" rx="108" fill="url(#bg)"/>
  <circle cx="256" cy="252" r="116" fill="#101923" fill-opacity="0.76" stroke="rgba(255,255,255,0.14)" stroke-width="12"/>
  <path d="M187 332C198 284 221 245 256 214C291 245 314 284 325 332" stroke="url(#claw)" stroke-width="22" stroke-linecap="round" stroke-linejoin="round"/>
  <path d="M215 188C227 164 243 150 256 150C269 150 285 164 297 188" stroke="#F4FBFF" stroke-width="18" stroke-linecap="round"/>
  <path d="M205 241C205 229 215 220 227 220H243C255 220 265 229 265 241V254C265 266 255 276 243 276H227C215 276 205 266 205 254V241Z" fill="#F57BFF"/>
  <path d="M247 241C247 229 257 220 269 220H285C297 220 307 229 307 241V254C307 266 297 276 285 276H269C257 276 247 266 247 254V241Z" fill="#7EF7FF"/>
  <path d="M180 195L205 213" stroke="#F57BFF" stroke-width="14" stroke-linecap="round"/>
  <path d="M332 195L307 213" stroke="#7EF7FF" stroke-width="14" stroke-linecap="round"/>
</svg>
