<svg width="512" height="512" viewBox="0 0 512 512" fill="none" xmlns="http://www.w3.org/2000/svg">
  <defs>
    <linearGradient id="bg" x1="66" y1="60" x2="420" y2="438" gradientUnits="userSpaceOnUse">
      <stop stop-color="#2B1A23"/>
      <stop offset="1" stop-color="#153522"/>
    </linearGradient>
    <linearGradient id="shield" x1="196" y1="150" x2="316" y2="364" gradientUnits="userSpaceOnUse">
      <stop stop-color="#FFB366"/>
      <stop offset="1" stop-color="#7DFFC6"/>
    </linearGradient>
  </defs>
  <rect x="24" y="24" width="464" height="464" rx="108" fill="url(#bg)"/>
  <path d="M256 122L352 162V244C352 315 309 370 256 392C203 370 160 315 160 244V162L256 122Z" fill="#0E1720" fill-opacity="0.76" stroke="rgba(255,255,255,0.14)" stroke-width="12"/>
  <path d="M256 160L314 184V242C314 286 289 325 256 346C223 325 198 286 198 242V184L256 160Z" fill="url(#shield)"/>
  <path d="M255 196L228 252H251L239 314L288 244H262L279 196H255Z" fill="#0F1318"/>
</svg>
