<svg width="512" height="512" viewBox="0 0 512 512" fill="none" xmlns="http://www.w3.org/2000/svg">
  <defs>
    <linearGradient id="bg" x1="88" y1="60" x2="432" y2="444" gradientUnits="userSpaceOnUse">
      <stop stop-color="#18223B"/>
      <stop offset="1" stop-color="#1D314D"/>
    </linearGradient>
    <linearGradient id="book" x1="154" y1="170" x2="358" y2="356" gradientUnits="userSpaceOnUse">
      <stop stop-color="#E9F3FF"/>
      <stop offset="1" stop-color="#B4DAFF"/>
    </linearGradient>
  </defs>
  <rect x="24" y="24" width="464" height="464" rx="108" fill="url(#bg)"/>
  <path d="M170 160H338C353 160 366 173 366 188V338C366 353 353 366 338 366H170C151 366 136 351 136 332V194C136 175 151 160 170 160Z" fill="#0E1823" fill-opacity="0.74" stroke="rgba(255,255,255,0.16)" stroke-width="12"/>
  <path d="M188 176H320C332 176 342 186 342 198V342H188C171 342 158 329 158 312V206C158 189 171 176 188 176Z" fill="url(#book)"/>
  <path d="M248 178V342" stroke="#8BB9FF" stroke-width="12"/>
  <path d="M192 222H226" stroke="#7A95D8" stroke-width="10" stroke-linecap="round"/>
  <path d="M270 222H308" stroke="#7A95D8" stroke-width="10" stroke-linecap="round"/>
  <path d="M192 260H226" stroke="#7A95D8" stroke-width="10" stroke-linecap="round"/>
  <path d="M270 260H308" stroke="#7A95D8" stroke-width="10" stroke-linecap="round"/>
  <path d="M192 298H226" stroke="#7A95D8" stroke-width="10" stroke-linecap="round"/>
  <path d="M270 298H308" stroke="#7A95D8" stroke-width="10" stroke-linecap="round"/>
</svg>
