<svg width="512" height="512" viewBox="0 0 512 512" fill="none" xmlns="http://www.w3.org/2000/svg" role="img" aria-label="Base Atlas icon">
  <defs>
    <linearGradient id="bg" x1="56" y1="56" x2="456" y2="456" gradientUnits="userSpaceOnUse">
      <stop stop-color="#08111D"/>
      <stop offset="1" stop-color="#153C70"/>
    </linearGradient>
    <radialGradient id="glow" cx="0" cy="0" r="1" gradientUnits="userSpaceOnUse" gradientTransform="translate(180 152) rotate(52) scale(282 282)">
      <stop stop-color="#74F4FF" stop-opacity="0.28"/>
      <stop offset="1" stop-color="#74F4FF" stop-opacity="0"/>
    </radialGradient>
  </defs>
  <rect x="22" y="22" width="468" height="468" rx="106" fill="url(#bg)"/>
  <rect x="22" y="22" width="468" height="468" rx="106" fill="url(#glow)"/>
  <rect x="42" y="42" width="428" height="428" rx="90" fill="rgba(255,255,255,0.02)" stroke="rgba(255,255,255,0.08)" stroke-width="8"/>
  
        <rect x="128" y="134" width="256" height="212" rx="34" fill="rgba(255,255,255,0.05)" stroke="#CDE6FF" stroke-width="10"/>
        <path d="M172 170H340" stroke="#74F4FF" stroke-width="12" stroke-linecap="round"/>
        <path d="M172 240H340" stroke="#74F4FF" stroke-width="12" stroke-linecap="round"/>
        <path d="M172 310H340" stroke="#74F4FF" stroke-width="12" stroke-linecap="round"/>
        <path d="M192 154V330" stroke="#74F4FF" stroke-width="12" stroke-linecap="round"/>
        <path d="M256 154V330" stroke="#74F4FF" stroke-width="12" stroke-linecap="round"/>
        <path d="M320 154V330" stroke="#74F4FF" stroke-width="12" stroke-linecap="round"/>
        <circle cx="256" cy="240" r="28" fill="#09131C" stroke="#CDE6FF" stroke-width="10"/>
      
  <rect x="82" y="74" width="168" height="42" rx="21" fill="rgba(7,10,16,0.64)" stroke="rgba(255,255,255,0.10)" stroke-width="2"/>
  <text x="100" y="101" fill="#86D0FF" font-family="Inter, SF Pro Display, Arial, sans-serif" font-size="18" font-weight="700" letter-spacing="0.18em">RoachNet</text>
  <rect x="322" y="368" width="108" height="62" rx="22" fill="rgba(7,10,16,0.72)" stroke="rgba(255,255,255,0.11)" stroke-width="2"/>
  <text x="376" y="408" text-anchor="middle" fill="#F5FAFF" font-family="JetBrains Mono, SF Mono, monospace" font-size="28" font-weight="700" letter-spacing="0.12em">MAP</text>
</svg>