<svg width="512" height="512" viewBox="0 0 512 512" fill="none" xmlns="http://www.w3.org/2000/svg" role="img" aria-label="Ansible Docs icon">
  <defs>
    <linearGradient id="bg" x1="56" y1="56" x2="456" y2="456" gradientUnits="userSpaceOnUse">
      <stop stop-color="#160F0D"/>
      <stop offset="1" stop-color="#5A3020"/>
    </linearGradient>
    <radialGradient id="glow" cx="0" cy="0" r="1" gradientUnits="userSpaceOnUse" gradientTransform="translate(180 152) rotate(52) scale(282 282)">
      <stop stop-color="#F3A574" stop-opacity="0.28"/>
      <stop offset="1" stop-color="#F3A574" stop-opacity="0"/>
    </radialGradient>
  </defs>
  <rect x="22" y="22" width="468" height="468" rx="106" fill="url(#bg)"/>
  <rect x="22" y="22" width="468" height="468" rx="106" fill="url(#glow)"/>
  <rect x="42" y="42" width="428" height="428" rx="90" fill="rgba(255,255,255,0.02)" stroke="rgba(255,255,255,0.08)" stroke-width="8"/>
  
        <rect x="164" y="154" width="184" height="62" rx="18" fill="rgba(255,255,255,0.04)" stroke="#FFE0D1" stroke-width="10"/>
        <rect x="164" y="228" width="184" height="62" rx="18" fill="rgba(255,255,255,0.04)" stroke="#F3A574" stroke-width="10"/>
        <rect x="164" y="302" width="184" height="46" rx="18" fill="rgba(255,255,255,0.03)" stroke="#FFE0D1" stroke-width="10"/>
        <circle cx="198" cy="185" r="8" fill="#F3A574"/>
        <circle cx="198" cy="259" r="8" fill="#FFE0D1"/>
        <circle cx="198" cy="325" r="8" fill="#F3A574"/>
      
  <rect x="82" y="74" width="168" height="42" rx="21" fill="rgba(7,10,16,0.64)" stroke="rgba(255,255,255,0.10)" stroke-width="2"/>
  <text x="100" y="101" fill="#F3A574" font-family="Inter, SF Pro Display, Arial, sans-serif" font-size="18" font-weight="700" letter-spacing="0.18em">Docs</text>
  <rect x="322" y="368" width="108" height="62" rx="22" fill="rgba(7,10,16,0.72)" stroke="rgba(255,255,255,0.11)" stroke-width="2"/>
  <text x="376" y="408" text-anchor="middle" fill="#FFF8F4" font-family="JetBrains Mono, SF Mono, monospace" font-size="28" font-weight="700" letter-spacing="0.12em">ANSI</text>
</svg>