<svg width="512" height="512" viewBox="0 0 512 512" fill="none" xmlns="http://www.w3.org/2000/svg" role="img" aria-label="TED: Music icon">
  <defs>
    <linearGradient id="bg" x1="56" y1="56" x2="456" y2="456" gradientUnits="userSpaceOnUse">
      <stop stop-color="#180813"/>
      <stop offset="1" stop-color="#6F1858"/>
    </linearGradient>
    <radialGradient id="glow" cx="0" cy="0" r="1" gradientUnits="userSpaceOnUse" gradientTransform="translate(180 152) rotate(52) scale(282 282)">
      <stop stop-color="#FF86E1" stop-opacity="0.28"/>
      <stop offset="1" stop-color="#FF86E1" stop-opacity="0"/>
    </radialGradient>
  </defs>
  <rect x="22" y="22" width="468" height="468" rx="106" fill="url(#bg)"/>
  <rect x="22" y="22" width="468" height="468" rx="106" fill="url(#glow)"/>
  <rect x="42" y="42" width="428" height="428" rx="90" fill="rgba(255,255,255,0.02)" stroke="rgba(255,255,255,0.08)" stroke-width="8"/>
  
        <path d="M160 246C178 246 184 204 202 204C220 204 226 290 244 290C262 290 268 176 286 176C304 176 310 314 328 314C346 314 352 230 352 230" stroke="#FF86E1" stroke-width="16" stroke-linecap="round" stroke-linejoin="round"/>
        <rect x="144" y="164" width="224" height="164" rx="30" fill="none" stroke="#FFE2F7" stroke-width="10"/>
      
  <rect x="82" y="74" width="168" height="42" rx="21" fill="rgba(7,10,16,0.64)" stroke="rgba(255,255,255,0.10)" stroke-width="2"/>
  <text x="100" y="101" fill="#FF86E1" font-family="Inter, SF Pro Display, Arial, sans-serif" font-size="18" font-weight="700" letter-spacing="0.18em">TED</text>
  <rect x="322" y="368" width="108" height="62" rx="22" fill="rgba(7,10,16,0.72)" stroke="rgba(255,255,255,0.11)" stroke-width="2"/>
  <text x="376" y="408" text-anchor="middle" fill="#FFF8FD" font-family="JetBrains Mono, SF Mono, monospace" font-size="28" font-weight="700" letter-spacing="0.12em">TM</text>
</svg>