<svg xmlns="http://www.w3.org/2000/svg" viewBox="0 0 128 128" role="img" aria-labelledby="title desc">
  <title id="title">RoachVoice Cloner Forge</title>
  <desc id="desc">A RoachVoice model-pack icon with waveform, microphone, and cloning rings.</desc>
  <defs>
    <linearGradient id="voiceForgeGlow" x1="16" y1="16" x2="112" y2="112" gradientUnits="userSpaceOnUse">
      <stop stop-color="#ff66d8"/>
      <stop offset=".52" stop-color="#8f4dff"/>
      <stop offset="1" stop-color="#56ff9a"/>
    </linearGradient>
    <filter id="voiceForgeShadow" x="-30%" y="-30%" width="160%" height="160%">
      <feDropShadow dx="0" dy="0" stdDeviation="4" flood-color="#a855f7" flood-opacity=".55"/>
    </filter>
  </defs>
  <rect width="128" height="128" rx="28" fill="#050707"/>
  <path d="M24 69c7-18 16-27 28-27s21 9 28 27c7-15 15-22 25-22" fill="none" stroke="url(#voiceForgeGlow)" stroke-width="4" stroke-linecap="round" filter="url(#voiceForgeShadow)"/>
  <rect x="48" y="22" width="32" height="58" rx="16" fill="#090d0b" stroke="#ecfeff" stroke-width="2.5"/>
  <path d="M40 59c0 16 10 27 24 27s24-11 24-27M64 86v18M50 104h28" fill="none" stroke="#56ff9a" stroke-width="4" stroke-linecap="round"/>
  <path d="M57 39h14M57 50h14M57 61h14" stroke="#ecfeff" stroke-width="3" stroke-linecap="round"/>
  <circle cx="92" cy="86" r="13" fill="#110918" stroke="#ff66d8" stroke-width="3"/>
  <circle cx="100" cy="94" r="13" fill="none" stroke="#8f4dff" stroke-width="3" opacity=".8"/>
  <path d="M91 86h9M96 81v10" stroke="#ffffff" stroke-width="2.5" stroke-linecap="round"/>
</svg>
