<svg width="512" height="512" viewBox="0 0 512 512" fill="none" xmlns="http://www.w3.org/2000/svg" role="img" aria-label="RoachClaw Coder Ultra icon">
  <defs>
    <linearGradient id="bg" x1="56" y1="56" x2="456" y2="456" gradientUnits="userSpaceOnUse">
      <stop stop-color="#120A1D"/>
      <stop offset="1" stop-color="#3F2575"/>
    </linearGradient>
    <radialGradient id="glow" cx="0" cy="0" r="1" gradientUnits="userSpaceOnUse" gradientTransform="translate(180 152) rotate(52) scale(282 282)">
      <stop stop-color="#BC9CFF" stop-opacity="0.28"/>
      <stop offset="1" stop-color="#BC9CFF" stop-opacity="0"/>
    </radialGradient>
  </defs>
  <rect x="22" y="22" width="468" height="468" rx="106" fill="url(#bg)"/>
  <rect x="22" y="22" width="468" height="468" rx="106" fill="url(#glow)"/>
  <rect x="42" y="42" width="428" height="428" rx="90" fill="rgba(255,255,255,0.02)" stroke="rgba(255,255,255,0.08)" stroke-width="8"/>
  
        <path d="M188 214C188 182 214 156 246 156H266C298 156 324 182 324 214V286C324 318 298 344 266 344H246C214 344 188 318 188 286V214Z" fill="rgba(255,255,255,0.04)" stroke="#EEE5FF" stroke-width="10"/>
        <circle cx="228" cy="236" r="14" fill="#BC9CFF"/>
        <circle cx="284" cy="236" r="14" fill="#BC9CFF"/>
        <path d="M226 294C240 310 272 310 286 294" stroke="#BC9CFF" stroke-width="12" stroke-linecap="round"/>
        <path d="M214 156L196 126M298 156L316 126" stroke="#EEE5FF" stroke-width="10" stroke-linecap="round"/>
      
  <rect x="82" y="74" width="168" height="42" rx="21" fill="rgba(7,10,16,0.64)" stroke="rgba(255,255,255,0.10)" stroke-width="2"/>
  <text x="100" y="101" fill="#C9A8FF" font-family="Inter, SF Pro Display, Arial, sans-serif" font-size="18" font-weight="700" letter-spacing="0.18em">RoachClaw</text>
  <rect x="322" y="368" width="108" height="62" rx="22" fill="rgba(7,10,16,0.72)" stroke="rgba(255,255,255,0.11)" stroke-width="2"/>
  <text x="376" y="408" text-anchor="middle" fill="#FAF7FF" font-family="JetBrains Mono, SF Mono, monospace" font-size="28" font-weight="700" letter-spacing="0.12em">Q32</text>
</svg>